{"title":"Weekend at Bernie's 1989 BRRip 720p x264 Dual Audio Hindi Englis","uid":10875014,"size":1002086625,"categoryP":"video","categoryS":"hd___movies","magnet":"?xt=urn:btih:7067342efb7e30df4dcc70626b394cf9e959f861&amp;dn=Weekend+at+Bernie%27s+1989+BRRip+720p+x264+Dual+Audio+Hindi+Englis&amp;tr=udp%3A%2F%2Ftracker.openbittorrent.com%3A80&amp;tr=udp%3A%2F%2Fopen.demonii.com%3A1337&amp;tr=udp%3A%2F%2Ftracker.coppersurfer.tk%3A6969&amp;tr=udp%3A%2F%2Fexodus.desync.com%3A6969","seeders":11,"leechers":1,"uploader":"jatt13","files":1,"time":1408986946,"description":"Video\nID                             : 1\nFormat                         : AVC\nFormat/Info                    : Advanced Video Codec\nFormat profile                 : &lt;a class=&quot;__cf_email__&quot; href=&quot;/cdn-cgi/l/email-protection&quot; data-cfemail=&quot;c984a8a0a78985fae7f8&quot;&gt;[email&amp;#160;protected]&lt;/a&gt;&lt;script cf-hash='f9e31' type=&quot;text/javascript&quot;&gt;\n/* &lt;![CDATA[ */!function(){try{var t=&quot;currentScript&quot;in document?document.currentScript:function(){for(var t=document.getElementsByTagName(&quot;script&quot;),e=t.length;e--;)if(t[e].getAttribute(&quot;cf-hash&quot;))return t[e]}();if(t&amp;&amp;t.previousSibling){var e,r,n,i,c=t.previousSibling,a=c.getAttribute(&quot;data-cfemail&quot;);if(a){for(e=&quot;&quot;,r=parseInt(a.substr(0,2),16),n=2;a.length-n;n+=2)i=parseInt(a.substr(n,2),16)^r,e+=String.fromCharCode(i);e=document.createTextNode(e),c.parentNode.replaceChild(e,c)}}}catch(u){}}();/* ]]&gt; */&lt;/script&gt;\nFormat settings, CABAC         : Yes\nFormat settings, ReFrames      : 2 frames\nCodec ID                       : V_MPEG4/ISO/AVC\nDuration                       : 1h 38mn\nBit rate                       : 1 114 Kbps\nWidth                          : 1 280 pixels\nHeight                         : 720 pixels\nDisplay aspect ratio           : 16:9\nFrame rate mode                : Constant\nFrame rate                     : 25.000 fps\nColor space                    : YUV\nChroma subsampling             : 4:2:0\nBit depth                      : 8 bits\nScan type                      : Progressive\nBits/(Pixel*Frame)             : 0.048\nStream size                    : 757 MiB (79%)\nTitle                          : GOPI SAHI\nWriting library                : x264 core 112 r1834 a51816a\nLanguage                       : English\nDefault                        : Yes\nForced                         : No\n\nAudio #1\nID                             : 2\nFormat                         : AC-3\nFormat/Info                    : Audio Coding 3\nMode extension                 : CM (complete main)\nFormat settings, Endianness    : Big\nCodec ID                       : A_AC3\nDuration                       : 1h 38mn\nBit rate mode                  : Constant\nBit rate                       : 128 Kbps\nChannel(s)                     : 2 channels\nChannel positions              : Front: L R\nSampling rate                  : 48.0 KHz\nBit depth                      : 16 bits\nCompression mode               : Lossy\nStream size                    : 90.0 MiB (9%)\nTitle                          : GOPI SAHI\nLanguage                       : English\nDefault                        : Yes\nForced                         : No\n\nAudio #2\nID                             : 3\nFormat                         : AC-3\nFormat/Info                    : Audio Coding 3\nMode extension                 : CM (complete main)\nFormat settings, Endianness    : Big\nCodec ID                       : A_AC3\nDuration                       : 1h 38mn\nBit rate mode                  : Constant\nBit rate                       : 128 Kbps\nChannel(s)                     : 2 channels\nChannel positions              : Front: L R\nSampling rate                  : 44.1 KHz\nBit depth                      : 16 bits\nCompression mode               : Lossy\nDelay relative to video        : 31ms\nStream size                    : 90.0 MiB (9%)\nTitle                          : GOPI SAHI\nLanguage                       : Hindi\nDefault                        : No\nForced                         : No\n[IMG]http://i.imgur.com/8rcdNhZ.jpg[/IMG]\n[IMG]http://i.imgur.com/9HcnMSg.jpg[/IMG]\n[IMG]http://i.imgur.com/5kacFxS.jpg[/IMG]\n[IMG]http://i.imgur.com/urvY6GC.jpg[/IMG]\n[IMG]http://i.imgur.com/EjOEjv1.jpg[/IMG]","torrent":{"xt":"urn:btih:7067342efb7e30df4dcc70626b394cf9e959f861","amp;dn":"Weekend+at+Bernie%27s+1989+BRRip+720p+x264+Dual+Audio+Hindi+Englis","amp;tr":["udp%3A%2F%2Ftracker.openbittorrent.com%3A80","udp%3A%2F%2Fopen.demonii.com%3A1337","udp%3A%2F%2Ftracker.coppersurfer.tk%3A6969","udp%3A%2F%2Fexodus.desync.com%3A6969"],"infoHash":"7067342efb7e30df4dcc70626b394cf9e959f861","infoHashBuffer":{"type":"Buffer","data":[112,103,52,46,251,126,48,223,77,204,112,98,107,57,76,249,233,89,248,97]},"announce":[],"urlList":[]}}